<svg width="36" height="36" viewBox="0 0 36 36" fill="none" xmlns="http://www.w3.org/2000/svg">
<path d="M18.0001 10.35C20.4751 10.35 20.8126 10.35 21.8251 10.35C22.7251 10.35 23.1751 10.575 23.5126 10.6875C23.9626 10.9125 24.3001 11.025 24.6376 11.3625C24.9751 11.7 25.2001 12.0375 25.3126 12.4875C25.4251 12.825 25.5376 13.275 25.6501 14.175C25.6501 15.1875 25.6501 15.4125 25.6501 18C25.6501 20.5875 25.6501 20.8125 25.6501 21.825C25.6501 22.725 25.4251 23.175 25.3126 23.5125C25.0876 23.9625 24.9751 24.3 24.6376 24.6375C24.3001 24.975 23.9626 25.2 23.5126 25.3125C23.1751 25.425 22.7251 25.5375 21.8251 25.65C20.8126 25.65 20.5876 25.65 18.0001 25.65C15.4126 25.65 15.1876 25.65 14.1751 25.65C13.2751 25.65 12.8251 25.425 12.4876 25.3125C12.0376 25.0875 11.7001 24.975 11.3626 24.6375C11.0251 24.3 10.8001 23.9625 10.6876 23.5125C10.5751 23.175 10.4626 22.725 10.3501 21.825C10.3501 20.8125 10.3501 20.5875 10.3501 18C10.3501 15.4125 10.3501 15.1875 10.3501 14.175C10.3501 13.275 10.5751 12.825 10.6876 12.4875C10.9126 12.0375 11.0251 11.7 11.3626 11.3625C11.7001 11.025 12.0376 10.8 12.4876 10.6875C12.8251 10.575 13.2751 10.4625 14.1751 10.35C15.1876 10.35 15.5251 10.35 18.0001 10.35ZM18.0001 8.66248C15.4126 8.66248 15.1876 8.66248 14.1751 8.66248C13.1626 8.66248 12.4876 8.88748 11.9251 9.11248C11.3626 9.33748 10.8001 9.67498 10.2376 10.2375C9.6751 10.8 9.4501 11.25 9.1126 11.925C8.8876 12.4875 8.7751 13.1625 8.6626 14.175C8.6626 15.1875 8.6626 15.525 8.6626 18C8.6626 20.5875 8.6626 20.8125 8.6626 21.825C8.6626 22.8375 8.8876 23.5125 9.1126 24.075C9.3376 24.6375 9.6751 25.2 10.2376 25.7625C10.8001 26.325 11.2501 26.55 11.9251 26.8875C12.4876 27.1125 13.1626 27.225 14.1751 27.3375C15.1876 27.3375 15.5251 27.3375 18.0001 27.3375C20.4751 27.3375 20.8126 27.3375 21.8251 27.3375C22.8376 27.3375 23.5126 27.1125 24.0751 26.8875C24.6376 26.6625 25.2001 26.325 25.7626 25.7625C26.3251 25.2 26.5501 24.75 26.8876 24.075C27.1126 23.5125 27.2251 22.8375 27.3376 21.825C27.3376 20.8125 27.3376 20.475 27.3376 18C27.3376 15.525 27.3376 15.1875 27.3376 14.175C27.3376 13.1625 27.1126 12.4875 26.8876 11.925C26.6626 11.3625 26.3251 10.8 25.7626 10.2375C25.2001 9.67498 24.7501 9.44998 24.0751 9.11248C23.5126 8.88748 22.8376 8.77498 21.8251 8.66248C20.8126 8.66248 20.5876 8.66248 18.0001 8.66248Z" fill="#041F30"/>
<path d="M18.0001 13.1625C15.3001 13.1625 13.1626 15.3 13.1626 18C13.1626 20.7 15.3001 22.8375 18.0001 22.8375C20.7001 22.8375 22.8376 20.7 22.8376 18C22.8376 15.3 20.7001 13.1625 18.0001 13.1625ZM18.0001 21.15C16.3126 21.15 14.8501 19.8 14.8501 18C14.8501 16.3125 16.2001 14.85 18.0001 14.85C19.6876 14.85 21.1501 16.2 21.1501 18C21.1501 19.6875 19.6876 21.15 18.0001 21.15Z" fill="#041F30"/>
<path d="M22.9501 14.175C23.5714 14.175 24.0751 13.6713 24.0751 13.05C24.0751 12.4287 23.5714 11.925 22.9501 11.925C22.3288 11.925 21.8251 12.4287 21.8251 13.05C21.8251 13.6713 22.3288 14.175 22.9501 14.175Z" fill="#041F30"/>
</svg>
