<svg width="36" height="36" viewBox="0 0 36 36" fill="none" xmlns="http://www.w3.org/2000/svg">
<path d="M26.55 13.6125C26.325 12.825 25.7625 12.2625 24.975 12.0375C23.625 11.7 17.8875 11.7 17.8875 11.7C17.8875 11.7 12.2625 11.7 10.8 12.0375C10.0125 12.2625 9.45 12.825 9.225 13.6125C9 15.075 9 18 9 18C9 18 9 20.925 9.3375 22.3875C9.5625 23.175 10.125 23.7375 10.9125 23.9625C12.2625 24.3 18 24.3 18 24.3C18 24.3 23.625 24.3 25.0875 23.9625C25.875 23.7375 26.4375 23.175 26.6625 22.3875C27 20.925 27 18 27 18C27 18 27 15.075 26.55 13.6125ZM16.2 20.7V15.3L20.925 18L16.2 20.7Z" fill="#041F30"/>
</svg>
