<svg width="161" height="47" viewBox="0 0 161 47" fill="none" xmlns="http://www.w3.org/2000/svg">
<path d="M154.292 0.928514C157.04 0.928514 159.275 3.11137 159.275 5.79396V40.5575C159.275 43.24 157.04 45.4229 154.292 45.4229H5.93431C3.18673 45.4229 0.950973 43.24 0.950973 40.5575V5.79396C0.950973 3.11137 3.18673 0.928514 5.93431 0.928514H154.292ZM154.292 4.07711e-05H5.93431C2.67192 4.07711e-05 0 2.60875 0 5.79396V40.5575C0 43.7427 2.67192 46.3514 5.93431 46.3514H154.292C157.555 46.3514 160.226 43.7427 160.226 40.5575V5.79396C160.226 2.60875 157.555 4.07711e-05 154.292 4.07711e-05Z" fill="#A6A6A6"/>
<path d="M56.2779 11.8703C56.2779 12.8379 55.9812 13.6128 55.3967 14.1908C54.7246 14.8759 53.8493 15.2206 52.7767 15.2206C51.7515 15.2206 50.8762 14.8701 50.1581 14.1792C49.4386 13.4781 49.0796 12.6177 49.0796 11.5878C49.0796 10.558 49.4386 9.69757 50.1581 9.0023C50.8762 8.30558 51.7515 7.95505 52.7767 7.95505C53.287 7.95505 53.7736 8.05789 54.238 8.24909C54.7009 8.44174 55.0777 8.70246 55.3507 9.02403L54.7305 9.63528C54.2543 9.08631 53.606 8.81545 52.7767 8.81545C52.0289 8.81545 51.3806 9.07038 50.8302 9.58459C50.2857 10.1002 50.0128 10.768 50.0128 11.5878C50.0128 12.4077 50.2857 13.0812 50.8302 13.5969C51.3806 14.1053 52.0289 14.366 52.7767 14.366C53.5704 14.366 54.238 14.1053 54.7647 13.5911C55.1118 13.2507 55.3091 12.7814 55.3611 12.1817H52.7767V11.3445H56.2245C56.266 11.5255 56.2779 11.7008 56.2779 11.8703V11.8703Z" fill="white" stroke="white" stroke-width="0.16" stroke-miterlimit="10"/>
<path d="M61.748 8.96756H58.5094V11.1693H61.4291V12.0065H58.5094V14.2082H61.748V15.0613H57.5925V8.11441H61.748V8.96756Z" fill="white" stroke="white" stroke-width="0.16" stroke-miterlimit="10"/>
<path d="M65.6082 15.0613H64.6913V8.96756H62.7048V8.11441H67.5962V8.96756H65.6082V15.0613V15.0613Z" fill="white" stroke="white" stroke-width="0.16" stroke-miterlimit="10"/>
<path d="M71.136 15.0613V8.11441H72.0514V15.0613H71.136Z" fill="white" stroke="white" stroke-width="0.16" stroke-miterlimit="10"/>
<path d="M76.1089 15.0613H75.1995V8.96756H73.2056V8.11441H78.1028V8.96756H76.1089V15.0613Z" fill="white" stroke="white" stroke-width="0.16" stroke-miterlimit="10"/>
<path d="M87.3634 14.1676C86.6616 14.8701 85.7923 15.2206 84.7552 15.2206C83.7123 15.2206 82.8429 14.8701 82.1412 14.1676C81.4409 13.4665 81.0923 12.6061 81.0923 11.5878C81.0923 10.5696 81.4409 9.70916 82.1412 9.00809C82.8429 8.30558 83.7123 7.95505 84.7552 7.95505C85.7863 7.95505 86.6557 8.30558 87.3574 9.01389C88.0636 9.72074 88.4123 10.5753 88.4123 11.5878C88.4123 12.6061 88.0636 13.4665 87.3634 14.1676ZM82.8192 13.5853C83.3473 14.1053 83.9897 14.366 84.7552 14.366C85.5148 14.366 86.1632 14.1053 86.6854 13.5853C87.212 13.0653 87.4791 12.3975 87.4791 11.5878C87.4791 10.7781 87.212 10.1104 86.6854 9.59038C86.1632 9.07038 85.5148 8.80965 84.7552 8.80965C83.9897 8.80965 83.3473 9.07038 82.8192 9.59038C82.2925 10.1104 82.0255 10.7781 82.0255 11.5878C82.0255 12.3975 82.2925 13.0653 82.8192 13.5853V13.5853Z" fill="white" stroke="white" stroke-width="0.16" stroke-miterlimit="10"/>
<path d="M89.6985 15.0613V8.11441H90.8112L94.2709 13.5172H94.3109L94.2709 12.1817V8.11441H95.1862V15.0613H94.2308L90.6079 9.39197H90.5679L90.6079 10.7333V15.0613H89.6985V15.0613Z" fill="white" stroke="white" stroke-width="0.16" stroke-miterlimit="10"/>
<path d="M80.8668 25.2065C78.0791 25.2065 75.8018 27.2778 75.8018 30.1356C75.8018 32.9703 78.0791 35.0634 80.8668 35.0634C83.6603 35.0634 85.9376 32.9703 85.9376 30.1356C85.9376 27.2778 83.6603 25.2065 80.8668 25.2065ZM80.8668 33.1224C79.3372 33.1224 78.0213 31.8897 78.0213 30.1356C78.0213 28.3584 79.3372 27.1474 80.8668 27.1474C82.3963 27.1474 83.7182 28.3584 83.7182 30.1356C83.7182 31.8897 82.3963 33.1224 80.8668 33.1224V33.1224ZM69.8156 25.2065C67.022 25.2065 64.7507 27.2778 64.7507 30.1356C64.7507 32.9703 67.022 35.0634 69.8156 35.0634C72.6077 35.0634 74.8805 32.9703 74.8805 30.1356C74.8805 27.2778 72.6077 25.2065 69.8156 25.2065ZM69.8156 33.1224C68.2845 33.1224 66.9642 31.8897 66.9642 30.1356C66.9642 28.3584 68.2845 27.1474 69.8156 27.1474C71.3452 27.1474 72.6611 28.3584 72.6611 30.1356C72.6611 31.8897 71.3452 33.1224 69.8156 33.1224ZM56.6652 26.7172V28.8117H61.788C61.6381 29.9821 61.2375 30.8425 60.6233 31.4422C59.8756 32.1664 58.711 32.9703 56.6652 32.9703C53.5126 32.9703 51.0439 30.4862 51.0439 27.4081C51.0439 24.3301 53.5126 21.846 56.6652 21.846C58.3698 21.846 59.6101 22.4964 60.5254 23.3394L62.0372 21.8634C60.7569 20.6698 59.0537 19.7529 56.6652 19.7529C52.342 19.7529 48.7087 23.1873 48.7087 27.4081C48.7087 31.629 52.342 35.0634 56.6652 35.0634C59.0018 35.0634 60.7569 34.3159 62.1366 32.9138C63.5504 31.5334 63.9911 29.5925 63.9911 28.0252C63.9911 27.5385 63.9495 27.0909 63.8754 26.7172H56.6652ZM110.439 28.341C110.022 27.2387 108.736 25.2065 106.116 25.2065C103.52 25.2065 101.358 27.2039 101.358 30.1356C101.358 32.8964 103.497 35.0634 106.365 35.0634C108.684 35.0634 110.022 33.683 110.572 32.8791L108.851 31.7594C108.277 32.5792 107.495 33.1224 106.365 33.1224C105.242 33.1224 104.436 32.6198 103.92 31.629L110.672 28.9015L110.439 28.341V28.341ZM103.555 29.9821C103.497 28.0817 105.067 27.1083 106.191 27.1083C107.073 27.1083 107.82 27.5385 108.07 28.1541L103.555 29.9821V29.9821ZM98.0674 34.7635H100.287V20.2787H98.0674V34.7635ZM94.4326 26.3044H94.3584C93.8599 25.7279 92.909 25.2065 91.7043 25.2065C89.1763 25.2065 86.8649 27.3734 86.8649 30.1516C86.8649 32.9138 89.1763 35.0634 91.7043 35.0634C92.909 35.0634 93.8599 34.5376 94.3584 33.9437H94.4326V34.6505C94.4326 36.535 93.4015 37.5475 91.7384 37.5475C90.3824 37.5475 89.5412 36.5915 89.1941 35.7876L87.264 36.5741C87.8203 37.8807 89.2935 39.4885 91.7384 39.4885C94.3406 39.4885 96.5363 37.9936 96.5363 34.3565V25.5063H94.4326V26.3044V26.3044ZM91.8942 33.1224C90.3646 33.1224 89.0843 31.8724 89.0843 30.1516C89.0843 28.4148 90.3646 27.1474 91.8942 27.1474C93.4015 27.1474 94.5899 28.4148 94.5899 30.1516C94.5899 31.8724 93.4015 33.1224 91.8942 33.1224V33.1224ZM120.83 20.2787H115.522V34.7635H117.735V29.2752H120.83C123.288 29.2752 125.699 27.5385 125.699 24.7763C125.699 22.0155 123.282 20.2787 120.83 20.2787V20.2787ZM120.888 27.2604H117.735V22.2936H120.888C122.54 22.2936 123.484 23.6334 123.484 24.7763C123.484 25.8974 122.54 27.2604 120.888 27.2604ZM134.571 25.1789C132.971 25.1789 131.308 25.8684 130.624 27.3966L132.589 28.2005C133.012 27.3966 133.789 27.1358 134.611 27.1358C135.759 27.1358 136.924 27.8094 136.942 28.9986V29.1507C136.541 28.9247 135.683 28.5901 134.629 28.5901C132.513 28.5901 130.357 29.7272 130.357 31.8492C130.357 33.7901 132.09 35.0402 134.038 35.0402C135.528 35.0402 136.35 34.384 136.866 33.6207H136.942V34.7403H139.079V29.184C139.079 26.6158 137.115 25.1789 134.571 25.1789ZM134.304 33.1166C133.58 33.1166 132.571 32.7661 132.571 31.8897C132.571 30.7686 133.829 30.3384 134.918 30.3384C135.893 30.3384 136.35 30.5485 136.942 30.8251C136.768 32.1664 135.586 33.1166 134.304 33.1166V33.1166ZM146.868 25.4962L144.324 31.7753H144.248L141.618 25.4962H139.231L143.183 34.271L140.928 39.1539H143.241L149.331 25.4962H146.868V25.4962ZM126.916 34.7635H129.135V20.2787H126.916V34.7635Z" fill="white"/>
<path d="M12.3849 8.73584C12.0362 9.09217 11.8345 9.64694 11.8345 10.3654V35.9919C11.8345 36.7103 12.0362 37.2651 12.3849 37.6214L12.4709 37.6996L27.1791 23.3452V23.0063L12.4709 8.65183L12.3849 8.73584Z" fill="url(#paint0_linear_16_143)"/>
<path d="M32.0765 28.1323L27.1792 23.3451V23.0062L32.0824 18.2189L32.1922 18.2812L37.9989 21.507C39.6561 22.4224 39.6561 23.9288 37.9989 24.8501L32.1922 28.07L32.0765 28.1323V28.1323Z" fill="url(#paint1_linear_16_143)"/>
<path d="M32.1923 28.0701L27.1792 23.1757L12.385 37.6214C12.9354 38.1863 13.833 38.2544 14.8537 37.6895L32.1923 28.0701" fill="url(#paint2_linear_16_143)"/>
<path d="M32.1923 18.2813L14.8537 8.66196C13.833 8.10285 12.9354 8.17092 12.385 8.73583L27.1792 23.1757L32.1923 18.2813Z" fill="url(#paint3_linear_16_143)"/>
<defs>
<linearGradient id="paint0_linear_16_143" x1="25.8732" y1="36.2588" x2="6.43161" y2="16.3461" gradientUnits="userSpaceOnUse">
<stop stop-color="#00A0FF"/>
<stop offset="0.0066" stop-color="#00A1FF"/>
<stop offset="0.2601" stop-color="#00BEFF"/>
<stop offset="0.5122" stop-color="#00D2FF"/>
<stop offset="0.7604" stop-color="#00DFFF"/>
<stop offset="1" stop-color="#00E3FF"/>
</linearGradient>
<linearGradient id="paint1_linear_16_143" x1="40.1568" y1="23.174" x2="11.4384" y2="23.174" gradientUnits="userSpaceOnUse">
<stop stop-color="#FFE000"/>
<stop offset="0.4087" stop-color="#FFBD00"/>
<stop offset="0.7754" stop-color="#FFA500"/>
<stop offset="1" stop-color="#FF9C00"/>
</linearGradient>
<linearGradient id="paint2_linear_16_143" x1="29.4663" y1="20.515" x2="3.10194" y2="-6.48823" gradientUnits="userSpaceOnUse">
<stop stop-color="#FF3A44"/>
<stop offset="1" stop-color="#C31162"/>
</linearGradient>
<linearGradient id="paint3_linear_16_143" x1="8.66099" y1="46.1472" x2="20.4339" y2="34.0892" gradientUnits="userSpaceOnUse">
<stop stop-color="#32A071"/>
<stop offset="0.0685" stop-color="#2DA771"/>
<stop offset="0.4762" stop-color="#15CF74"/>
<stop offset="0.8009" stop-color="#06E775"/>
<stop offset="1" stop-color="#00F076"/>
</linearGradient>
</defs>
</svg>
